<svg width="174" height="166" viewBox="0 0 174 166" fill="none" xmlns="http://www.w3.org/2000/svg">
<g clip-path="url(#clip0_311_63408)">
<rect width="173.439" height="165.495" transform="translate(0.279785 0.503906)" fill="#DCF1F8"/>
<path d="M28.1058 77.0409C29.9728 67.3929 37.7138 59.6559 47.3688 57.7879C48.8228 57.5069 49.8718 56.2339 49.8718 54.7529C49.8718 53.2719 48.8218 51.9999 47.3678 51.7189C37.7128 49.8509 29.9718 42.1139 28.1048 32.4659C27.8238 31.0119 26.5508 29.9629 25.0708 29.9629C23.5908 29.9629 22.3178 31.0129 22.0368 32.4659C20.1688 42.1149 12.4318 49.8519 2.78378 51.7189C1.33078 51.9999 0.279785 53.2729 0.279785 54.7529C0.279785 56.2329 1.32979 57.5059 2.78279 57.7879C12.4318 59.6549 20.1688 67.3919 22.0368 77.0409C22.3178 78.4949 23.5908 79.5439 25.0708 79.5439C26.5518 79.5449 27.8238 78.4949 28.1058 77.0409ZM12.4608 54.7539C17.7928 51.8899 22.2078 47.4749 25.0718 42.1429C27.9368 47.4759 32.3538 51.8899 37.6888 54.7539C32.3528 57.6189 27.9368 62.0329 25.0718 67.3659C22.2078 62.0329 17.7928 57.6179 12.4608 54.7539Z" fill="#3E6B99"/>
<path d="M171.216 28.6077C165.067 27.4177 160.137 22.4907 158.948 16.3467C158.667 14.8927 157.394 13.8438 155.914 13.8438C154.434 13.8438 153.161 14.8937 152.88 16.3467C151.691 22.4907 146.763 27.4187 140.619 28.6077C139.166 28.8887 138.116 30.1618 138.116 31.6418C138.116 33.1228 139.166 34.3948 140.619 34.6758C146.764 35.8648 151.691 40.7928 152.88 46.9368C153.161 48.3908 154.434 49.4397 155.914 49.4397C157.394 49.4397 158.667 48.3898 158.948 46.9368C160.137 40.7928 165.067 35.8658 171.216 34.6758C172.669 34.3948 173.719 33.1218 173.719 31.6418C173.719 30.1608 172.669 28.8887 171.216 28.6077ZM155.94 38.1927C154.262 35.5597 152.033 33.3258 149.403 31.6418C152.032 29.9578 154.262 27.7237 155.94 25.0907C157.637 27.7107 159.883 29.9518 162.508 31.6418C159.883 33.3318 157.636 35.5727 155.94 38.1927Z" fill="#3E6B99"/>
<path d="M53.823 147.067C48.626 146.061 44.46 141.898 43.456 136.706C43.175 135.252 41.902 134.203 40.421 134.203C38.941 134.203 37.668 135.253 37.387 136.706C36.382 141.898 32.218 146.062 27.025 147.067C25.572 147.348 24.522 148.621 24.522 150.101C24.522 151.582 25.572 152.854 27.026 153.135C32.218 154.139 36.382 158.303 37.387 163.496C37.668 164.95 38.941 165.999 40.421 165.999C41.902 165.999 43.174 164.949 43.456 163.496C44.46 158.304 48.627 154.14 53.823 153.135C55.277 152.854 56.327 151.581 56.327 150.101C56.326 148.621 55.276 147.348 53.823 147.067ZM40.447 155.085C39.112 153.129 37.426 151.44 35.474 150.101C37.426 148.761 39.111 147.072 40.447 145.116C41.796 147.063 43.493 148.757 45.445 150.101C43.493 151.445 41.796 153.138 40.447 155.085Z" fill="#3E6B99"/>
<path d="M157.582 65.0938C155.772 63.2838 152.836 63.2838 151.026 65.0938L78.9168 137.204C77.1058 139.015 77.1058 141.95 78.9168 143.761L91.7248 156.569C92.6298 157.474 93.8168 157.926 95.0028 157.926C96.1898 157.926 97.3758 157.473 98.2808 156.569L123.696 131.154L133.226 140.684C134.131 141.589 135.318 142.041 136.504 142.041C137.69 142.041 138.877 141.588 139.782 140.684L143.865 136.601L161.928 154.664C162.833 155.569 164.02 156.022 165.206 156.022C166.392 156.022 167.579 155.569 168.484 154.664C170.294 152.853 170.294 149.918 168.484 148.107L150.421 130.044L154.504 125.961C155.374 125.091 155.862 123.912 155.862 122.683C155.862 121.454 155.374 120.275 154.504 119.405L144.974 109.875L170.389 84.4598C172.2 82.6488 172.2 79.7138 170.389 77.9028L157.582 65.0938ZM144.671 122.683L140.589 126.765L140.588 126.766L140.587 126.768L136.505 130.85L130.253 124.598L138.42 116.431L144.671 122.683ZM135.141 106.596L120.418 121.319L120.415 121.322L95.0018 146.735L88.7498 140.483L154.303 74.9298L160.555 81.1818L135.141 106.596Z" fill="#3E6B99"/>
<path d="M37.947 89.6778C36.137 87.8678 33.201 87.8678 31.391 89.6778C29.58 91.4888 29.58 94.4238 31.391 96.2348L65.344 130.188C66.249 131.093 67.435 131.546 68.622 131.546C69.808 131.546 70.995 131.093 71.9 130.188C73.711 128.377 73.711 125.442 71.9 123.631L37.947 89.6778Z" fill="#5BACC2"/>
<path d="M49.921 85.9223L63.879 99.8803C64.784 100.785 65.97 101.238 67.157 101.238C68.343 101.238 69.53 100.785 70.435 99.8803C72.246 98.0693 72.246 95.1343 70.435 93.3233L56.477 79.3653C54.667 77.5553 51.731 77.5553 49.921 79.3653C48.111 81.1763 48.111 84.1113 49.921 85.9223Z" fill="#5BACC2"/>
<path d="M78.8899 101.778C77.0799 99.9679 74.1439 99.9669 72.3339 101.777C70.5239 103.587 70.5229 106.523 72.3339 108.333L78.145 114.145C79.05 115.05 80.237 115.503 81.423 115.503C82.609 115.503 83.796 115.05 84.701 114.146C86.511 112.336 86.512 109.4 84.701 107.59L78.8899 101.778Z" fill="#5BACC2"/>
<path d="M91.439 92.0389C93.25 90.2279 93.25 87.2929 91.439 85.4819L60.508 54.5509C58.698 52.7409 55.762 52.7409 53.952 54.5509C52.141 56.3619 52.141 59.2969 53.952 61.1079L84.883 92.0389C85.788 92.9439 86.975 93.3959 88.161 93.3959C89.347 93.3959 90.533 92.9439 91.439 92.0389Z" fill="#5BACC2"/>
<path d="M109.563 87.876C110.468 88.781 111.654 89.234 112.841 89.234C114.027 89.234 115.214 88.781 116.119 87.876C117.93 86.065 117.93 83.13 116.119 81.319L58.3879 23.588C56.5779 21.778 53.6429 21.778 51.8319 23.588C50.0209 25.399 50.0209 28.334 51.8319 30.145L109.563 87.876Z" fill="#5BACC2"/>
<path d="M88.3256 37.7949C89.2306 38.6999 90.4176 39.1529 91.6036 39.1529C92.7896 39.1529 93.9766 38.6999 94.8816 37.7949C96.6926 35.9839 96.6926 33.0489 94.8816 31.2379L83.0676 19.4239C81.2576 17.6139 78.3216 17.6139 76.5116 19.4239C74.7006 21.2349 74.7006 24.1699 76.5116 25.9809L88.3256 37.7949Z" fill="#5BACC2"/>
<path d="M111.402 54.3138C109.591 56.1248 109.591 59.0598 111.402 60.8708L123.216 72.6848C124.121 73.5898 125.308 74.0428 126.494 74.0428C127.68 74.0428 128.867 73.5898 129.772 72.6848C131.583 70.8738 131.583 67.9388 129.772 66.1278L117.958 54.3138C116.148 52.5048 113.212 52.5048 111.402 54.3138Z" fill="#5BACC2"/>
<path d="M132.213 52.8394C133.118 53.7444 134.305 54.1974 135.491 54.1974C136.677 54.1974 137.864 53.7444 138.769 52.8394C140.58 51.0284 140.58 48.0934 138.769 46.2824L94.3478 1.86141C92.5378 0.0514063 89.6018 0.0514063 87.7918 1.86141C85.9808 3.67241 85.9808 6.60741 87.7918 8.41841L132.213 52.8394Z" fill="#5BACC2"/>
</g>
<defs>
<clipPath id="clip0_311_63408">
<rect width="173.439" height="165.495" fill="white" transform="translate(0.279785 0.503906)"/>
</clipPath>
</defs>
</svg>
